<svg xmlns="http://www.w3.org/2000/svg" width="30" height="26.25" viewBox="0 0 30 26.25">
  <path id="bars-solid" d="M1.071,64.821H28.929A1.071,1.071,0,0,0,30,63.75V61.071A1.071,1.071,0,0,0,28.929,60H1.071A1.071,1.071,0,0,0,0,61.071V63.75A1.071,1.071,0,0,0,1.071,64.821Zm0,10.714H28.929A1.071,1.071,0,0,0,30,74.464V71.786a1.071,1.071,0,0,0-1.071-1.071H1.071A1.071,1.071,0,0,0,0,71.786v2.679A1.071,1.071,0,0,0,1.071,75.536Zm0,10.714H28.929A1.071,1.071,0,0,0,30,85.179V82.5a1.071,1.071,0,0,0-1.071-1.071H1.071A1.071,1.071,0,0,0,0,82.5v2.679A1.071,1.071,0,0,0,1.071,86.25Z" transform="translate(0 -60)" fill="#fff"/>
</svg>
